<?xml version="1.0" standalone="no"?>
<!DOCTYPE svg PUBLIC "-//W3C//DTD SVG 20010904//EN"
 "http://www.w3.org/TR/2001/REC-SVG-20010904/DTD/svg10.dtd">
<svg version="1.0" xmlns="http://www.w3.org/2000/svg"
 width="768.000000pt" height="768.000000pt" viewBox="0 0 768.000000 768.000000"
 preserveAspectRatio="xMidYMid meet">
<metadata>
Created by potrace 1.14, written by Peter Selinger 2001-2017
</metadata>
<g transform="translate(0.000000,768.000000) scale(0.100000,-0.100000)"
fill="#000000" stroke="none">
<path d="M4007 7530 c-110 -43 -219 -157 -283 -296 l-32 -71 -84 -12 c-413
-58 -786 -175 -1163 -366 -356 -179 -597 -354 -885 -644 -193 -193 -254 -265
-383 -448 -349 -496 -550 -1046 -613 -1677 -7 -66 -9 -69 -38 -80 -17 -6 -76
-33 -130 -60 -82 -40 -115 -64 -183 -131 -46 -45 -83 -86 -83 -92 0 -5 26 -17
57 -27 109 -34 248 -113 332 -188 37 -35 43 -46 62 -130 165 -744 393 -1233
787 -1690 525 -608 1238 -1006 2094 -1168 90 -17 172 -33 183 -35 12 -3 34
-30 55 -66 36 -64 128 -167 167 -188 21 -11 25 -7 63 53 23 36 56 78 74 94
l33 29 5 124 c6 147 17 182 108 328 81 133 102 193 108 312 8 173 -28 267
-145 380 l-73 71 0 144 c0 79 2 144 5 144 18 0 195 -130 259 -189 145 -136
215 -301 216 -509 0 -166 -33 -277 -135 -452 -50 -86 -85 -183 -85 -235 0 -31
3 -35 23 -31 12 3 56 10 97 17 80 12 340 68 353 76 4 2 6 187 3 411 -4 457 -8
488 -76 628 -58 119 -141 204 -315 319 -224 149 -316 262 -336 414 -5 36 -8
140 -8 231 l0 165 37 -41 c20 -23 64 -92 97 -155 107 -202 156 -255 370 -395
269 -176 419 -384 476 -658 16 -80 19 -138 19 -468 0 -208 2 -378 4 -378 2 0
62 23 133 51 243 97 483 221 678 352 72 49 255 186 255 192 0 2 -46 1 -102 -2
-122 -6 -274 14 -379 51 -217 75 -384 233 -529 501 -70 129 -163 265 -233 341
-36 39 -127 117 -201 173 -75 56 -149 119 -166 139 -30 36 -155 280 -148 288
8 8 150 -37 237 -75 148 -63 235 -124 362 -250 93 -94 135 -146 216 -271 228
-348 305 -439 438 -518 155 -91 296 -115 617 -105 l197 6 93 106 c114 129 161
190 267 349 l82 123 -140 -2 c-95 -1 -142 -5 -145 -12 -3 -9 -5 -8 -5 1 -1 6
-8 12 -17 12 -9 0 -12 -5 -8 -12 6 -10 5 -10 -7 -1 -10 8 -82 11 -247 10 -194
-2 -235 -5 -243 -17 -9 -13 -10 -12 -5 3 6 20 -9 23 -17 3 -3 -7 0 -19 6 -26
8 -9 5 -8 -10 1 -17 10 -19 16 -11 27 9 11 9 13 -3 11 -7 -1 -37 1 -64 5 -30
4 -62 3 -78 -3 -17 -7 -27 -7 -27 -1 0 6 -5 10 -10 10 -6 0 -10 -6 -8 -13 1
-6 -3 -22 -10 -34 -8 -14 -9 -24 -2 -28 5 -3 10 0 10 8 0 9 10 15 25 15 14 0
25 -5 25 -10 0 -5 -4 -6 -10 -3 -5 3 -10 -3 -10 -14 0 -18 3 -19 25 -11 14 5
25 7 25 3 0 -4 6 2 14 13 17 23 12 32 -8 15 -12 -10 -17 -9 -27 7 -7 11 -20
18 -28 15 -13 -4 -13 -3 1 6 20 13 51 4 41 -13 -4 -7 -1 -6 9 2 12 10 18 9 28
-3 9 -11 17 -12 31 -4 13 7 19 6 19 -1 0 -6 4 -9 9 -6 5 3 15 -2 22 -12 13
-15 12 -16 -3 -3 -17 13 -23 8 -18 -14 1 -5 -1 -7 -5 -3 -4 4 -14 0 -22 -8 -8
-8 -19 -12 -24 -9 -12 8 -31 -4 -24 -15 3 -5 25 -1 49 10 24 10 46 16 49 14 3
-3 14 6 25 20 22 29 34 34 26 11 -4 -8 -1 -15 5 -15 6 0 12 10 12 23 1 20 2
20 6 2 3 -11 11 -24 19 -28 8 -4 14 -15 14 -24 0 -14 -2 -14 -20 2 -11 10 -20
14 -20 10 0 -5 -5 -4 -12 3 -17 17 -28 15 -28 -4 0 -11 -6 -15 -20 -11 -14 4
-20 0 -20 -11 0 -15 -2 -15 -11 -2 -9 13 -10 12 -5 -2 3 -12 0 -18 -10 -18 -9
0 -12 5 -8 11 4 7 1 10 -7 7 -9 -3 -14 -18 -13 -41 1 -24 -3 -37 -11 -37 -8 0
-15 -6 -18 -12 -2 -7 -4 -1 -4 15 0 15 3 30 8 33 4 2 6 11 2 20 -8 21 -34 -2
-27 -24 5 -15 4 -16 -8 -1 -7 9 -19 14 -26 11 -10 -3 -8 -8 5 -19 16 -13 15
-13 -7 -1 -14 7 -29 12 -33 13 -5 0 -15 9 -23 19 -8 11 -14 15 -14 8 0 -6 -9
-16 -20 -22 -18 -10 -19 -8 -16 29 2 22 -1 45 -6 53 -7 9 -8 8 -4 -5 5 -15 2
-17 -17 -12 -19 5 -20 4 -4 -5 9 -6 17 -20 17 -30 0 -21 -17 -36 -28 -25 -4 4
-1 10 6 12 16 6 15 20 -2 26 -10 4 -13 1 -9 -9 3 -10 0 -12 -10 -8 -8 3 -30
-2 -49 -12 -22 -12 -28 -19 -18 -22 7 -3 16 0 18 7 5 15 22 4 22 -15 0 -23
-29 -16 -55 12 -14 15 -25 24 -25 19 0 -4 -14 8 -32 26 -17 19 -35 33 -41 31
-5 -2 -7 7 -4 18 4 16 3 19 -7 11 -10 -8 -24 3 -57 44 -24 30 -48 55 -53 55
-4 0 -6 9 -3 19 3 13 0 18 -8 15 -20 -8 -27 13 -14 38 11 21 11 22 -5 8 -16
-13 -21 -11 -47 20 -28 35 -31 52 -14 80 8 13 7 13 -9 1 -14 -12 -19 -12 -29
-1 -7 8 -8 11 -1 7 7 -4 12 3 12 20 0 22 -2 23 -10 9 -9 -16 -11 -16 -29 3
-11 12 -17 26 -13 33 4 7 3 8 -4 4 -7 -4 -12 -1 -12 9 0 9 -4 13 -10 10 -6 -3
-10 -1 -10 5 0 6 -9 20 -19 32 -15 16 -17 23 -8 33 16 17 31 7 16 -11 -7 -9
-8 -14 -1 -14 6 0 13 9 17 19 6 20 33 36 44 26 3 -3 -1 -10 -9 -15 -13 -8 -12
-10 3 -10 11 0 15 -5 11 -11 -4 -8 0 -9 15 -4 31 9 26 -2 -10 -24 -18 -11 -26
-22 -20 -25 6 -4 11 -2 11 3 0 6 7 11 15 11 8 0 15 -4 15 -10 0 -5 -4 -10 -10
-10 -5 0 -10 -4 -10 -10 0 -5 7 -6 17 -3 12 5 14 3 8 -8 -7 -12 -6 -11 9 1 10
8 13 16 8 18 -6 2 -8 10 -5 19 4 11 2 14 -5 9 -7 -4 -12 -2 -12 3 0 6 4 11 8
11 5 0 9 14 9 30 0 37 3 40 42 45 22 3 31 0 31 -10 0 -8 -6 -12 -13 -9 -10 4
-12 -3 -9 -25 2 -17 8 -28 13 -25 5 3 7 10 4 15 -4 5 1 16 9 25 14 14 14 18
-5 44 -12 16 -28 26 -35 23 -10 -3 -14 3 -14 19 0 13 -14 39 -31 58 -30 32
-32 33 -45 15 -17 -22 -19 -12 -3 16 9 18 1 30 -62 95 -40 41 -76 74 -81 74
-4 0 -28 15 -54 33 l-46 32 98 3 c54 1 103 1 110 -2 7 -3 59 -74 115 -158 118
-175 198 -259 296 -310 133 -70 110 -68 790 -68 l614 0 54 112 c30 62 55 121
55 130 0 16 -44 18 -687 20 l-688 3 -48 22 c-61 29 -151 114 -188 178 -16 28
-29 53 -29 58 0 4 416 7 925 7 1005 0 968 -2 1013 55 43 54 22 148 -41 182
-30 17 -126 18 -1684 21 l-1653 2 0 130 0 130 1278 1 c702 1 1437 4 1632 8
l355 6 60 29 c59 29 189 146 214 194 l12 22 -1776 0 -1775 0 0 130 0 130 1655
0 1655 0 0 49 c0 73 -27 311 -50 441 -26 149 -26 156 4 164 13 3 38 22 55 41
25 29 31 44 31 83 0 75 -48 122 -125 122 -83 0 -124 -44 -215 -233 -63 -132
-79 -156 -143 -221 -50 -51 -94 -84 -143 -109 -131 -66 -155 -69 -499 -74
l-310 -4 40 32 c118 95 255 268 353 446 77 139 132 213 196 262 85 66 148 81
330 81 178 0 236 13 283 62 41 44 53 69 53 116 0 47 -29 88 -77 109 -47 19
-97 8 -136 -32 l-32 -33 -140 -4 c-118 -4 -148 -8 -192 -27 -29 -13 -58 -29
-64 -37 -24 -29 -26 -12 -8 59 27 98 49 299 49 432 0 122 -10 245 -19 245 -3
0 -24 -25 -46 -56 -97 -135 -224 -219 -370 -244 -42 -7 -141 -10 -248 -8
l-177 3 41 82 c79 158 167 223 326 242 125 15 189 58 243 160 26 49 39 61 83
82 89 41 120 117 77 187 -50 82 -187 72 -238 -18 -9 -16 -21 -30 -25 -30 -5 0
-39 26 -75 58 -128 112 -364 280 -370 263 -2 -5 2 -27 8 -48 6 -21 14 -103 17
-183 6 -171 -9 -269 -62 -393 -106 -246 -289 -410 -605 -542 -162 -68 -271
-131 -370 -215 -80 -67 -83 -68 -64 -18 55 138 116 274 144 318 49 77 120 131
270 209 234 122 334 229 405 436 26 74 32 280 11 369 -39 165 -146 302 -301
383 -175 92 -629 215 -950 259 -68 9 -77 15 -123 83 -47 70 -76 174 -70 256
l3 55 -35 0 c-19 -1 -57 -9 -83 -20z m180 -624 c34 -45 109 -137 168 -206 156
-182 228 -301 284 -466 60 -179 68 -488 18 -677 -33 -124 -110 -294 -179 -394
-69 -101 -219 -253 -333 -337 l-90 -66 -6 98 c-4 53 -7 203 -8 333 l-1 236 77
38 c90 44 203 151 246 232 86 162 87 363 1 540 -44 92 -166 221 -259 275 l-60
34 -2 300 -3 299 43 -79 c24 -43 71 -115 104 -160z m-662 -121 c97 -24 230
-87 249 -118 15 -23 -71 -209 -169 -364 -1 -2 -30 26 -66 60 -80 78 -143 102
-253 95 -158 -11 -276 -119 -305 -284 -28 -151 59 -316 204 -386 25 -12 43
-28 41 -34 -18 -46 -27 -149 -24 -272 3 -127 1 -142 -14 -142 -33 0 -214 100
-279 154 -179 147 -273 357 -273 601 2 484 420 809 889 690z m1569 -95 c138
-52 236 -218 221 -375 -10 -103 -46 -198 -103 -273 -29 -38 -37 -37 -22 4 9
22 9 26 0 17 -7 -6 -13 -24 -14 -40 -2 -34 -14 -55 -27 -47 -5 3 -8 0 -7 -7 2
-6 -3 -14 -11 -16 -10 -4 -11 0 -6 17 6 20 5 21 -8 9 -11 -10 -12 -18 -5 -27
6 -7 9 -14 7 -15 -53 -41 -72 -49 -81 -36 -8 11 -9 10 -4 -3 7 -24 -28 -43
-52 -29 -15 9 -14 11 8 11 14 1 19 4 13 7 -15 6 -17 33 -3 33 6 0 10 7 10 15
0 8 9 19 21 25 11 7 18 14 15 17 -3 3 -12 1 -19 -5 -8 -7 -17 -9 -20 -5 -4 3
-7 -2 -7 -11 0 -12 -5 -16 -15 -13 -8 4 -17 2 -20 -3 -9 -14 -41 -12 -43 3
-10 95 -10 117 -2 112 5 -3 8 0 5 7 -5 15 62 61 76 53 5 -4 6 1 3 9 -6 16 10
23 19 9 2 -5 3 -3 1 3 -1 6 11 30 26 53 33 49 45 110 37 189 -9 87 -57 134
-120 118 -38 -9 -55 -42 -60 -115 -2 -36 -8 -66 -14 -68 -5 -2 -7 -18 -5 -35
3 -22 1 -29 -7 -23 -7 4 -10 13 -7 21 3 8 1 14 -4 14 -5 0 -7 7 -4 15 4 8 1
15 -6 15 -7 0 -10 8 -7 20 3 10 0 18 -5 17 -11 -2 -36 55 -37 85 -1 10 5 16
12 14 6 -1 9 -1 5 1 -4 3 -10 3 -13 1 -12 -7 -36 45 -38 82 -2 52 42 115 102
147 57 30 139 31 215 3z m-2453 -21 c9 -18 7 -26 -8 -48 -34 -45 -85 -37 -85
15 0 50 70 75 93 33z m-226 -224 c34 -33 34 -87 -1 -122 -21 -21 -32 -24 -62
-19 -73 11 -96 84 -43 137 36 36 73 37 106 4z m1685 -150 c121 -84 190 -287
145 -426 -20 -64 -57 -131 -88 -160 -28 -27 -98 -79 -106 -79 -4 0 -8 155 -10
345 -2 276 0 345 10 345 7 0 29 -11 49 -25z m-260 -402 l0 -348 -162 162 -161
162 56 69 c30 38 101 118 156 177 56 60 101 112 101 117 0 4 2 8 5 8 3 0 5
-156 5 -347z m2238 321 c26 -18 28 -41 5 -66 -20 -22 -46 -23 -67 -2 -21 21
-20 40 4 64 24 24 29 24 58 4z m-3804 -124 c25 -11 53 -37 69 -62 24 -37 28
-51 24 -96 -4 -56 -24 -91 -71 -126 -21 -16 -42 -21 -95 -21 -58 0 -73 4 -103
27 -45 34 -73 102 -65 154 19 116 135 176 241 124z m-469 -195 c66 -65 -9
-180 -95 -145 -29 12 -50 47 -50 81 0 26 26 76 42 82 34 14 80 6 103 -18z
m3165 -49 c0 -11 -19 -15 -25 -6 -3 5 1 10 9 10 9 0 16 -2 16 -4z m-30 -20 c0
-2 -9 -6 -20 -9 -11 -3 -18 -1 -14 4 5 9 34 13 34 5z m-1270 -346 c73 -69 141
-131 151 -138 17 -11 19 -27 19 -118 l0 -105 -47 33 c-25 18 -101 87 -168 153
-137 135 -175 197 -183 297 -7 93 1 101 52 48 24 -25 103 -101 176 -170z
m-1962 -63 c127 -67 189 -77 482 -77 270 0 322 -5 460 -47 157 -47 289 -124
409 -238 143 -137 262 -345 286 -500 6 -39 4 -42 -64 -114 l-71 -74 -151 149
c-83 82 -157 155 -165 162 -7 7 -29 32 -49 57 -43 52 -79 63 -128 40 -39 -18
-57 -50 -57 -102 0 -28 7 -42 33 -64 17 -16 59 -52 92 -81 33 -28 120 -109
194 -179 l133 -127 -36 -76 c-19 -42 -39 -76 -43 -76 -4 0 -60 -5 -123 -10
-312 -28 -576 71 -822 308 -150 144 -221 247 -353 511 -121 244 -161 348 -259
689 l-15 54 88 -84 c55 -53 114 -97 159 -121z m4701 16 c-10 -32 -35 -112 -55
-178 -192 -636 -436 -962 -815 -1092 -179 -62 -300 -71 -522 -41 l-87 12 -25
54 -25 54 174 169 c96 93 189 180 207 192 87 59 57 182 -45 182 -40 0 -45 -4
-241 -202 l-200 -202 -64 70 -64 70 18 62 c83 297 306 560 565 667 176 73 326
95 572 86 266 -9 391 15 533 103 44 27 83 49 86 50 4 1 -2 -25 -12 -56z
m-2787 -360 c68 -62 143 -127 167 -146 41 -33 42 -35 45 -99 l2 -66 -36 18
c-150 76 -274 222 -331 389 -25 72 -24 82 5 46 13 -17 80 -81 148 -142z
m-2342 -4 c84 -106 116 -159 184 -309 19 -41 50 -103 70 -137 l36 -63 -28 0
c-54 1 -162 29 -224 60 -82 41 -149 108 -185 184 -25 55 -28 72 -28 166 0 94
3 114 30 179 29 72 29 73 45 50 8 -13 53 -71 100 -130z m-238 -478 c13 -5 55
-34 93 -65 40 -32 95 -66 128 -78 l58 -21 -33 -15 c-138 -60 -244 -76 -311
-48 -39 16 -83 65 -108 121 -17 37 -17 41 -1 59 38 42 125 66 174 47z m3106
-106 c140 -29 270 -92 370 -178 50 -42 142 -146 142 -159 0 -5 -138 -7 -307
-6 l-308 3 -3 178 c-3 204 -13 188 106 162z m-308 -750 l0 -754 -32 6 c-246
46 -439 200 -531 423 -42 101 -57 183 -57 314 0 299 123 528 366 679 50 31
191 81 242 86 9 1 12 -156 12 -754z m3328 513 c50 -48 11 -138 -60 -138 -46 0
-76 24 -84 65 -16 85 79 133 144 73z m-5306 -62 c190 -37 332 -122 459 -277
l73 -89 97 0 97 0 0 -115 0 -115 -96 0 c-94 0 -98 -1 -117 -27 -11 -15 -30
-38 -42 -51 -13 -13 -23 -27 -23 -32 0 -18 -72 -90 -83 -83 -5 3 -7 1 -4 -5
10 -14 -75 -86 -148 -127 -98 -55 -207 -86 -322 -92 -97 -6 -103 -5 -103 13 0
11 7 29 15 41 13 18 13 22 0 33 -13 11 -15 7 -16 -21 0 -19 -3 -28 -6 -21 -4
9 -8 10 -18 2 -10 -8 -13 -6 -11 7 0 10 7 22 14 26 6 4 12 13 12 18 0 6 -4 7
-10 4 -5 -3 -10 1 -10 10 0 9 5 13 10 10 6 -3 10 4 10 16 0 16 5 20 20 16 14
-3 20 0 20 10 0 13 3 13 15 3 13 -11 18 -11 28 0 9 10 9 11 -1 6 -7 -4 -19 -3
-27 4 -9 7 -15 8 -20 0 -3 -5 -17 -10 -30 -10 -18 0 -23 -4 -19 -15 4 -8 1
-15 -5 -15 -6 0 -11 9 -11 20 0 11 -4 20 -10 20 -5 0 -6 -7 -3 -17 4 -10 2
-14 -5 -9 -13 8 -35 -28 -39 -62 -1 -14 3 -22 10 -19 7 2 11 15 9 28 -1 18 0
20 7 10 7 -11 10 -9 13 10 2 13 4 0 5 -29 0 -29 -4 -55 -10 -59 -6 -4 -8 0 -4
10 5 12 1 17 -13 17 -11 0 -20 -5 -20 -11 0 -5 4 -7 10 -4 6 3 7 -1 4 -9 -3
-9 -10 -16 -16 -16 -5 0 -6 5 -2 11 5 9 -1 10 -19 5 -45 -11 -246 91 -230 117
4 6 1 7 -6 2 -8 -4 -55 36 -135 117 -93 94 -139 133 -189 158 -36 19 -64 37
-61 41 2 4 -52 18 -121 30 -68 13 -121 27 -117 30 4 4 50 18 102 33 147 41
243 93 346 187 187 171 289 230 454 264 87 18 202 18 292 1z m1125 -433 c-4
-38 -7 -89 -7 -115 l0 -48 -100 0 -100 0 0 48 c0 26 -3 77 -7 115 l-6 67 113
0 113 0 -6 -67z m6 -430 l68 -6 30 -60 31 -60 -54 -56 c-175 -185 -315 -321
-330 -321 -10 0 -32 -13 -49 -28 -26 -23 -32 -36 -32 -71 0 -71 55 -123 116
-107 23 5 196 175 377 369 35 37 69 67 76 67 7 0 38 -28 69 -62 l56 -63 -6
-52 c-8 -64 -47 -189 -82 -258 -104 -206 -300 -395 -496 -478 -157 -66 -184
-70 -507 -73 -225 -2 -314 -6 -375 -19 -137 -28 -251 -91 -366 -203 l-57 -54
10 53 c24 130 121 394 206 559 221 428 456 696 728 833 80 40 180 75 251 87
61 10 247 12 336 3z m-1368 -133 c-3 -5 -18 -10 -33 -9 l-27 1 25 8 c35 11 42
11 35 0z m-504 -71 c41 -14 169 -90 169 -101 0 -5 -15 -8 -33 -8 -22 0 -56
-14 -98 -40 -98 -62 -127 -73 -174 -65 -41 6 -135 57 -135 73 0 26 85 120 125
138 37 16 101 18 146 3z m479 -248 c-5 -11 -15 -23 -21 -26 -6 -4 -44 -59 -85
-122 -58 -90 -103 -143 -209 -247 l-135 -133 -18 56 c-25 82 -23 221 5 283 61
134 194 206 386 207 84 1 87 0 77 -18z m3471 -174 c-10 -9 -11 -8 -5 6 3 10 9
15 12 12 3 -3 0 -11 -7 -18z m-1242 -161 c-25 -63 -83 -127 -231 -257 -244
-214 -411 -373 -465 -441 -59 -75 -128 -187 -143 -234 -7 -20 -16 -31 -22 -28
-6 4 -8 2 -5 -3 4 -6 -3 -46 -14 -89 -53 -202 -11 -485 96 -645 19 -27 31 -49
29 -49 -8 0 -96 51 -124 72 -84 64 -197 198 -184 219 3 5 1 9 -4 9 -5 0 -17
21 -27 46 -15 39 -15 48 -4 55 11 7 11 9 -2 9 -9 0 -20 7 -23 16 -3 8 -2 12 4
9 6 -3 10 -1 10 4 0 6 -4 11 -9 11 -16 0 -29 92 -25 175 9 183 119 409 273
559 28 27 128 114 223 192 95 79 231 192 302 251 71 59 179 149 240 198 l111
91 3 -70 c2 -39 -2 -83 -9 -100z m1331 140 c0 -3 -4 -8 -10 -11 -5 -3 -10 -1
-10 4 0 6 5 11 10 11 6 0 10 -2 10 -4z m27 -18 c2 -18 0 -20 -7 -8 -12 18 -13
30 -2 30 4 0 9 -10 9 -22z m-177 -9 c0 -5 -4 -7 -10 -4 -5 3 -10 1 -10 -4 0
-6 -8 -11 -17 -11 -15 0 -14 2 3 15 23 17 34 19 34 4z m137 -21 c-3 -8 -6 -5
-6 6 -1 11 2 17 5 13 3 -3 4 -12 1 -19z m73 6 c0 -8 -5 -12 -10 -9 -6 4 -8 11
-5 16 9 14 15 11 15 -7z m-140 -30 c0 -3 -4 -3 -9 0 -5 3 -11 -1 -15 -9 -3 -8
-1 -17 4 -20 6 -4 10 -10 10 -16 0 -12 -37 -12 -45 1 -4 6 -3 10 2 9 20 -4 24
2 12 18 -10 11 -10 14 -1 9 6 -4 12 -3 12 2 0 15 -26 33 -35 24 -5 -4 -5 -2
-2 5 5 8 15 8 37 -4 17 -8 30 -17 30 -19z m45 26 c3 -5 1 -10 -4 -10 -6 0 -11
5 -11 10 0 6 2 10 4 10 3 0 8 -4 11 -10z m55 -15 c14 -19 14 -19 -2 -6 -10 7
-18 18 -18 24 0 6 1 8 3 6 1 -2 9 -13 17 -24z m-166 -20 c-4 -8 -8 -15 -10
-15 -2 0 -4 7 -4 15 0 8 4 15 10 15 5 0 7 -7 4 -15z m170 -11 c37 -26 40 -26
52 -9 8 10 17 16 20 12 3 -3 -4 -16 -16 -29 -14 -16 -20 -32 -17 -51 4 -33 -6
-42 -30 -28 -10 6 -12 11 -5 11 6 0 12 5 12 11 0 8 -5 7 -15 -1 -14 -11 -14
-15 2 -33 17 -19 17 -19 -4 -13 -15 5 -23 3 -23 -5 0 -8 -5 -7 -17 2 -9 8 -19
13 -22 13 -3 -1 -5 2 -3 7 1 5 -3 9 -10 9 -6 0 -8 3 -5 6 4 4 18 -1 33 -11 24
-15 26 -15 21 -2 -3 9 -1 19 4 23 18 11 -44 36 -76 30 -24 -5 -26 -4 -12 5 9
6 15 14 12 19 -3 5 -1 11 5 15 6 3 13 -1 16 -10 6 -13 8 -14 15 -3 7 10 9 10
9 1 0 -7 7 -13 16 -13 9 0 12 -5 8 -12 -4 -7 4 -3 17 10 l24 23 -23 19 c-18
15 -28 17 -42 10 -28 -15 -36 -12 -14 5 25 19 23 19 68 -11z m-29 -14 c3 -5 1
-10 -4 -10 -6 0 -11 5 -11 10 0 6 2 10 4 10 3 0 8 -4 11 -10z m130 -10 c-3 -4
1 -11 7 -14 7 -2 2 -4 -11 -3 -13 1 -26 -4 -29 -12 -3 -10 0 -11 9 -5 12 7 12
5 0 -9 -8 -10 -9 -17 -3 -17 6 0 15 7 20 17 8 13 10 12 10 -9 0 -20 -5 -24
-19 -21 -24 7 -24 -6 -1 -23 15 -12 15 -15 2 -23 -18 -12 -17 -14 -28 36 -8
36 -6 46 12 71 11 17 24 28 29 25 4 -2 5 -8 2 -13z m-170 -50 c-27 -12 -43
-12 -25 0 8 5 22 9 30 9 10 0 8 -3 -5 -9z m-1277 -338 c-6 -125 -34 -170 -196
-315 -272 -242 -340 -315 -397 -425 -15 -29 -29 -51 -31 -50 -1 2 1 36 6 76
11 87 50 208 92 282 67 119 107 160 478 488 19 17 39 32 44 32 5 0 7 -39 4
-88z m2557 -160 c-3 -3 -11 0 -18 7 -9 10 -8 11 6 5 10 -3 15 -9 12 -12z m121
-4 c4 -7 4 -10 -1 -6 -4 4 -16 3 -26 -2 -12 -7 -20 -6 -25 2 -4 6 -3 8 2 5 6
-3 16 -2 24 4 19 11 18 11 26 -3z m-262 -7 c3 -4 -6 -6 -21 -3 -22 4 -25 2
-20 -12 4 -10 7 -21 7 -26 0 -5 11 -7 25 -5 20 2 23 -1 14 -11 -6 -7 -18 -10
-27 -7 -15 6 -15 5 -3 -10 7 -10 9 -17 3 -17 -6 0 -12 5 -14 11 -2 6 -21 11
-42 13 -42 2 -63 29 -45 57 8 12 10 12 8 -1 -3 -29 1 -41 11 -35 6 3 10 1 10
-5 0 -6 4 -9 10 -5 5 3 7 13 3 23 -3 11 0 9 11 -5 10 -13 23 -23 29 -22 9 0 9
2 0 5 -7 3 -9 12 -6 21 4 11 2 14 -5 9 -16 -9 -15 7 0 22 14 14 44 16 52 3z
m100 -26 c-4 -11 1 -13 22 -9 16 3 26 3 23 -1 -4 -3 -17 -8 -29 -10 -13 -3
-27 -10 -30 -16 -5 -7 -10 -4 -14 7 -5 12 -1 23 9 30 10 8 12 15 6 18 -6 4
-19 -2 -31 -14 -11 -11 -20 -15 -20 -9 0 5 -4 7 -10 4 -6 -4 -7 1 -3 11 4 11
8 13 11 6 3 -9 9 -8 25 3 23 16 50 3 41 -20z m189 15 c-3 -12 -8 -19 -11 -16
-5 6 5 36 12 36 2 0 2 -9 -1 -20z m-92 -13 c-8 -8 -14 -7 -23 2 -11 10 -9 11
6 5 15 -6 17 -4 11 6 -6 9 -4 11 4 5 9 -5 10 -10 2 -18z m139 -1 c0 -2 -7 -7
-16 -10 -8 -3 -12 -2 -9 4 6 10 25 14 25 6z m-277 -40 c4 -10 1 -13 -9 -9 -7
3 -14 9 -14 14 0 14 17 10 23 -5z m93 5 c-4 -5 -1 -12 4 -14 6 -3 5 -4 -2 -3
-15 3 -23 26 -8 26 6 0 9 -4 6 -9z m282 -16 c-3 -3 -9 2 -12 12 -6 14 -5 15 5
6 7 -7 10 -15 7 -18z m-598 3 c0 -4 -4 -10 -10 -13 -5 -3 -10 -1 -10 6 0 7 -7
4 -15 -7 -15 -20 -19 -16 -9 9 6 15 44 20 44 5z m280 2 c0 -5 -5 -10 -11 -10
-5 0 -7 5 -4 10 3 6 8 10 11 10 2 0 4 -4 4 -10z m-346 -32 c-4 -15 -3 -18 6
-13 9 5 11 4 6 -4 -6 -9 -11 -9 -23 1 -9 7 -26 12 -37 11 -15 -2 -13 1 7 8 15
6 27 15 27 20 0 6 5 7 10 4 6 -4 8 -16 4 -27z m456 17 c-7 -8 -17 -15 -22 -15
-6 0 -5 7 2 15 7 8 17 15 22 15 6 0 5 -7 -2 -15z m-329 -2 c-10 -4 -11 -7 -1
-13 7 -4 9 -13 6 -19 -5 -8 -13 -4 -25 10 -16 20 -18 20 -31 3 -13 -16 -13
-17 3 -11 9 3 17 2 17 -3 0 -13 -27 -13 -35 1 -9 14 20 34 53 35 15 1 21 -1
13 -3z m-451 -23 c0 -12 52 -19 77 -9 14 5 23 5 23 -1 0 -6 10 -10 21 -10 17
0 19 -3 10 -14 -6 -8 -21 -16 -32 -19 -12 -3 -18 -3 -15 1 10 9 -55 33 -75 27
-11 -4 -22 1 -28 14 -15 27 -14 31 4 25 8 -4 15 -10 15 -14z m600 -1 c0 -5 -4
-9 -10 -9 -5 0 -10 7 -10 16 0 8 5 12 10 9 6 -3 10 -10 10 -16z m-110 7 c0 -3
-4 -8 -10 -11 -5 -3 -10 -1 -10 4 0 6 5 11 10 11 6 0 10 -2 10 -4z m69 -5 c9
-6 6 -8 -13 -8 -14 0 -23 3 -20 8 7 11 15 11 33 0z m107 -3 c4 -6 3 -8 -4 -4
-6 3 -13 2 -17 -4 -3 -5 -12 -10 -18 -10 -7 0 -3 7 7 15 24 18 23 18 32 3z
m-306 -18 c-6 -11 -12 -20 -14 -20 -2 0 -2 9 1 20 3 11 9 20 15 20 5 0 4 -9
-2 -20z m169 -19 c-6 -2 -18 4 -27 13 -15 15 -15 15 10 4 15 -7 23 -15 17 -17z
m-239 9 c13 -8 12 -10 -2 -10 -20 0 -24 -15 -8 -23 6 -3 5 -4 -2 -3 -7 1 -14
12 -14 24 -1 24 4 26 26 12z m290 0 c0 -5 -2 -10 -4 -10 -3 0 -8 5 -11 10 -3
6 -1 10 4 10 6 0 11 -4 11 -10z m-540 -10 c20 -12 22 -50 3 -43 -11 4 -11 8
-3 13 8 5 7 9 -5 14 -9 3 -21 4 -26 0 -5 -3 -17 0 -26 6 -16 10 -15 11 5 7 12
-3 22 -1 22 4 0 12 11 11 30 -1z m395 0 c3 -6 -1 -7 -9 -4 -18 7 -21 14 -7 14
6 0 13 -4 16 -10z m-263 -12 c-9 -9 -15 -9 -24 0 -9 9 -7 12 12 12 19 0 21 -3
12 -12z m166 -13 c-3 -3 -9 2 -12 12 -6 14 -5 15 5 6 7 -7 10 -15 7 -18z
m-237 -22 c-8 -15 -10 -15 -11 -2 0 17 10 32 18 25 2 -3 -1 -13 -7 -23z m119
10 c0 -3 -7 -3 -15 1 -9 3 -15 0 -15 -9 0 -8 -5 -15 -11 -15 -5 0 -7 5 -3 12
5 8 2 9 -9 5 -10 -3 -17 -2 -17 3 0 5 10 10 23 12 23 4 47 -1 47 -9z m48 -9
c2 -1 -4 -4 -13 -8 -9 -3 -13 -2 -10 4 3 6 1 10 -4 10 -6 0 -11 5 -11 11 0 8
6 7 18 -2 9 -7 18 -14 20 -15z m45 11 c-3 -9 -8 -14 -10 -11 -3 3 -2 9 2 15 9
16 15 13 8 -4z m218 -12 c13 -16 12 -17 -3 -4 -10 7 -18 15 -18 17 0 8 8 3 21
-13z m-398 -8 c-3 -9 -8 -14 -10 -11 -3 3 -2 9 2 15 9 16 15 13 8 -4z m87 -5
c0 -5 -2 -10 -4 -10 -3 0 -8 5 -11 10 -3 6 -1 10 4 10 6 0 11 -4 11 -10z
m-2155 -406 c-41 -42 -89 -95 -106 -120 -17 -25 -35 -42 -41 -38 -7 5 -8 2 -3
-5 4 -7 0 -27 -8 -44 -9 -18 -24 -53 -34 -79 -10 -27 -21 -48 -24 -48 -12 0
-8 -228 5 -295 8 -38 13 -72 11 -73 -2 -2 -27 12 -57 31 -85 54 -180 170 -163
198 4 5 1 8 -6 7 -8 -2 -19 18 -28 51 -12 45 -12 57 -1 75 12 19 12 20 -3 7
-15 -12 -17 -11 -17 8 0 45 23 161 32 161 5 0 6 5 3 10 -11 17 39 111 96 183
62 78 171 180 314 295 l100 80 3 -165 2 -164 -75 -75z m-1561 369 c12 -7 10
-12 -12 -27 -15 -11 -58 -55 -96 -99 -78 -89 -112 -114 -173 -123 -45 -7 -130
10 -159 31 -17 12 -17 15 -1 56 46 120 168 183 339 174 48 -2 94 -7 102 -12z
m310 -133 c-56 -179 -81 -236 -130 -289 -55 -62 -123 -93 -213 -99 l-74 -5 8
58 c14 112 72 208 177 291 62 49 271 194 275 191 1 -1 -19 -67 -43 -147z
m3400 142 c3 -5 -1 -9 -9 -9 -8 0 -15 4 -15 9 0 4 4 8 9 8 6 0 12 -4 15 -8z
m-551 -733 c55 -25 67 -103 23 -147 -21 -21 -36 -27 -72 -27 -38 0 -50 5 -70
28 -69 81 21 191 119 146z"/>
<path d="M4790 6506 c0 -8 4 -17 9 -20 5 -4 7 3 4 14 -6 23 -13 26 -13 6z"/>
<path d="M4836 6412 c-2 -4 7 -8 20 -8 13 -1 24 1 24 5 0 9 -38 12 -44 3z"/>
<path d="M4870 6340 c-13 -8 -12 -10 3 -10 9 0 17 5 17 10 0 12 -1 12 -20 0z"/>
<path d="M4990 6079 c0 -5 5 -7 10 -4 6 3 10 8 10 11 0 2 -4 4 -10 4 -5 0 -10
-5 -10 -11z"/>
<path d="M4950 6069 c0 -5 5 -7 10 -4 6 3 10 8 10 11 0 2 -4 4 -10 4 -5 0 -10
-5 -10 -11z"/>
<path d="M4990 6036 c0 -2 7 -7 16 -10 8 -3 12 -2 9 4 -6 10 -25 14 -25 6z"/>
<path d="M5080 6036 c0 -2 8 -10 18 -17 15 -13 16 -12 3 4 -13 16 -21 21 -21
13z"/>
<path d="M4986 6011 c-3 -5 2 -15 12 -22 15 -12 16 -12 5 2 -7 9 -10 19 -6 22
3 4 4 7 0 7 -3 0 -8 -4 -11 -9z"/>
<path d="M4934 5995 c-10 -8 -14 -15 -7 -15 19 0 43 11 43 21 0 13 -14 11 -36
-6z"/>
<path d="M4940 5960 c0 -5 5 -10 10 -10 6 0 10 5 10 10 0 6 -4 10 -10 10 -5 0
-10 -4 -10 -10z"/>
<path d="M5060 5950 c0 -5 -5 -9 -11 -7 -6 1 -13 -3 -16 -9 -2 -7 7 -11 22
-11 31 0 37 8 19 25 -8 7 -14 8 -14 2z"/>
<path d="M1611 3973 c-19 -3 -40 -11 -48 -19 -13 -12 -11 -14 11 -14 45 0 170
-45 215 -78 24 -17 48 -29 54 -25 5 3 7 2 4 -4 -4 -5 7 -23 23 -38 17 -16 30
-32 30 -37 0 -4 -51 -8 -113 -8 -113 0 -113 0 -134 28 -46 62 -151 82 -214 39
-109 -73 -106 -211 6 -274 22 -13 57 -23 78 -23 44 0 109 30 131 61 14 21 18
21 256 17 133 -2 243 -1 246 4 3 4 10 8 15 8 6 0 8 -4 5 -8 -3 -5 1 -9 9 -9 8
0 15 4 15 9 0 4 -4 8 -9 8 -4 0 -6 22 -3 49 4 44 2 50 -22 67 -15 11 -60 51
-99 90 -73 71 -131 109 -150 97 -6 -3 -7 -1 -3 5 8 13 -71 38 -164 52 -66 10
-79 10 -139 3z m159 -53 c0 -5 -8 -10 -17 -10 -15 0 -16 2 -3 10 19 12 20 12
20 0z m75 -10 c-3 -5 -18 -10 -32 -10 -26 0 -26 0 -7 -22 19 -23 19 -23 -2 -5
-32 27 -26 47 13 47 20 0 32 -4 28 -10z"/>
<path d="M2180 3726 c0 -2 7 -9 15 -16 13 -11 14 -10 9 4 -5 14 -24 23 -24 12z"/>
<path d="M2335 3710 c-3 -5 -2 -10 4 -10 5 0 11 -6 14 -12 2 -7 3 -5 2 4 -2 9
5 19 14 21 11 3 9 5 -6 6 -12 0 -25 -3 -28 -9z"/>
<path d="M2390 3712 c0 -8 111 -4 119 4 2 2 -23 4 -57 4 -34 0 -62 -4 -62 -8z"/>
<path d="M2360 3645 c0 -5 5 -17 10 -25 5 -8 10 -10 10 -5 0 6 -5 17 -10 25
-5 8 -10 11 -10 5z"/>
<path d="M920 3636 c0 -2 7 -7 16 -10 8 -3 12 -2 9 4 -6 10 -25 14 -25 6z"/>
<path d="M2250 3561 c0 -7 -5 -9 -12 -5 -7 5 -8 3 -3 -5 5 -9 10 -10 18 -2 6
6 8 14 4 18 -4 3 -7 1 -7 -6z"/>
<path d="M2305 3540 c-3 -5 -1 -10 4 -10 6 0 11 5 11 10 0 6 -2 10 -4 10 -3 0
-8 -4 -11 -10z"/>
<path d="M2168 3512 c-10 -4 -14 -12 -10 -19 6 -9 11 -7 20 7 7 11 11 20 10
19 -2 0 -11 -3 -20 -7z"/>
<path d="M2190 3496 c0 -10 28 -13 41 -5 10 6 7 9 -13 9 -16 0 -28 -2 -28 -4z"/>
<path d="M2103 3455 c0 -8 4 -12 9 -9 5 3 6 10 3 15 -9 13 -12 11 -12 -6z"/>
<path d="M2165 3450 c3 -5 8 -10 11 -10 2 0 4 5 4 10 0 6 -5 10 -11 10 -5 0
-7 -4 -4 -10z"/>
<path d="M2030 3427 c0 -5 -10 -17 -22 -26 l-21 -18 27 -7 c30 -7 76 16 56 29
-6 4 -17 -1 -25 -11 -7 -11 -17 -15 -22 -11 -15 16 38 49 66 42 14 -4 22 -3
18 1 -11 12 -77 13 -77 1z"/>
<path d="M1365 3400 c-3 -6 1 -7 9 -4 18 7 21 14 7 14 -6 0 -13 -4 -16 -10z"/>
<path d="M1879 3393 c-13 -16 -12 -17 4 -4 16 13 21 21 13 21 -2 0 -10 -8 -17
-17z"/>
<path d="M1960 3379 c0 -5 5 -7 10 -4 6 3 10 8 10 11 0 2 -4 4 -10 4 -5 0 -10
-5 -10 -11z"/>
<path d="M1514 3359 c-2 -4 -18 -6 -34 -4 -39 5 -39 -11 0 -20 31 -7 38 -19
19 -31 -6 -3 -8 -16 -5 -27 3 -13 -1 -25 -12 -33 -9 -7 -14 -15 -11 -18 10
-10 39 5 39 21 0 7 7 13 16 11 12 -2 17 6 20 32 2 19 12 41 22 49 12 10 13 12
2 9 -8 -2 -19 -14 -25 -26 -12 -27 -25 -29 -25 -3 0 10 7 21 15 25 8 3 15 9
15 14 0 11 -29 11 -36 1z m16 -79 c0 -5 -7 -10 -16 -10 -8 0 -12 5 -9 10 3 6
10 10 16 10 5 0 9 -4 9 -10z"/>
<path d="M1915 3360 c-6 -10 63 -26 72 -16 9 9 2 12 -34 19 -18 4 -35 2 -38
-3z"/>
<path d="M2042 3357 c-12 -7 -20 -16 -16 -20 3 -3 13 1 21 9 12 12 18 12 32 2
14 -12 15 -11 2 5 -7 9 -14 17 -15 17 0 -1 -11 -6 -24 -13z"/>
<path d="M1838 3353 c-30 -5 -33 -10 -18 -33 8 -13 10 -12 10 3 0 10 8 17 19
17 11 0 23 5 26 10 3 6 3 9 -2 9 -4 -1 -20 -4 -35 -6z"/>
<path d="M1740 3339 c0 -7 10 -9 24 -5 18 4 26 1 29 -11 4 -14 5 -12 6 5 1 18
-4 22 -29 22 -16 0 -30 -5 -30 -11z"/>
<path d="M1863 3333 c-26 -9 -13 -33 17 -33 23 0 28 -3 24 -17 -4 -13 -3 -14
3 -5 5 6 18 19 29 28 10 8 13 13 6 9 -7 -4 -18 -3 -25 3 -18 13 -40 20 -54 15z
m51 -22 c3 -4 -6 -6 -19 -3 -14 2 -25 6 -25 8 0 8 39 4 44 -5z"/>
<path d="M1435 3310 c-3 -5 3 -10 14 -10 12 0 21 5 21 10 0 6 -6 10 -14 10 -8
0 -18 -4 -21 -10z"/>
<path d="M1471 3289 c-14 -40 -14 -42 0 -37 10 3 23 68 14 68 -2 0 -8 -14 -14
-31z"/>
<path d="M1715 3309 c-4 -6 -5 -12 -2 -15 2 -3 7 2 10 11 7 17 1 20 -8 4z"/>
<path d="M1748 3301 c3 -9 2 -13 -2 -9 -5 4 -17 -2 -29 -13 -24 -22 -45 -26
-27 -4 10 13 9 15 -10 15 -21 0 -22 -1 -6 -25 19 -29 21 -65 4 -65 -8 0 -8 -3
-2 -9 13 -14 117 1 120 17 1 7 0 8 -3 2 -2 -5 -14 -10 -25 -10 -15 0 -18 3
-11 13 11 14 13 47 3 47 -4 0 -7 7 -7 15 0 8 4 15 9 15 4 0 8 -5 8 -12 0 -6 3
-8 6 -5 4 4 2 13 -4 20 -7 8 -10 16 -7 19 3 2 -1 5 -9 5 -9 0 -12 -7 -8 -16z
m-4 -35 c-3 -8 -1 -17 5 -21 18 -10 13 -23 -11 -31 -13 -4 -26 -12 -30 -18 -5
-6 -6 7 -3 28 4 36 17 55 37 56 4 0 5 -6 2 -14z"/>
<path d="M1721 3234 c0 -11 3 -14 6 -6 3 7 2 16 -1 19 -3 4 -6 -2 -5 -13z"/>
<path d="M2105 3309 c-4 -6 -5 -12 -2 -15 2 -3 7 2 10 11 7 17 1 20 -8 4z"/>
<path d="M1425 3280 c-3 -5 -1 -10 4 -10 6 0 11 5 11 10 0 6 -2 10 -4 10 -3 0
-8 -4 -11 -10z"/>
<path d="M1787 3267 c-3 -8 1 -14 9 -14 7 0 11 4 8 9 -3 4 2 8 11 8 11 0 15
-5 12 -14 -3 -7 0 -19 6 -25 9 -10 7 -16 -7 -27 -11 -8 -16 -14 -10 -14 11 1
51 30 40 30 -5 0 -3 7 4 15 7 8 16 12 21 9 14 -8 10 3 -7 20 -19 19 -80 21
-87 3z m73 -16 c0 -6 -4 -13 -10 -16 -5 -3 -10 1 -10 9 0 9 5 16 10 16 6 0 10
-4 10 -9z"/>
<path d="M1440 3251 c0 -6 4 -13 10 -16 6 -3 7 1 4 9 -7 18 -14 21 -14 7z"/>
<path d="M2745 1150 c3 -5 8 -10 11 -10 2 0 4 5 4 10 0 6 -5 10 -11 10 -5 0
-7 -4 -4 -10z"/>
<path d="M5196 2544 c-8 -21 -8 -24 3 -24 12 0 22 28 12 35 -5 3 -12 -2 -15
-11z"/>
<path d="M3376 965 c-3 -8 -1 -15 4 -15 13 0 22 18 11 24 -5 3 -11 -1 -15 -9z"/>
<path d="M6768 5543 c-99 -61 -32 -229 77 -193 89 30 105 129 30 188 -33 26
-70 28 -107 5z"/>
<path d="M6631 4718 c-70 -47 -94 -141 -54 -211 25 -43 102 -81 147 -73 107
20 168 134 122 224 -38 74 -149 105 -215 60z"/>
<path d="M5296 2445 c-3 -8 2 -21 10 -30 13 -12 13 -19 4 -30 -8 -10 -9 -19
-1 -32 9 -13 11 -14 10 -3 -3 29 1 41 12 35 6 -4 8 -13 5 -20 -3 -8 0 -15 5
-17 5 -2 1 -13 -10 -25 -17 -18 -18 -22 -4 -27 11 -5 13 -10 4 -19 -8 -10 -7
-14 5 -14 12 0 14 7 10 27 -3 15 -2 31 2 35 9 9 11 65 2 65 -4 0 -15 12 -25
26 -9 15 -12 23 -6 20 7 -5 9 -1 5 8 -8 20 -20 20 -28 1z"/>
<path d="M5400 2421 c0 -5 5 -13 10 -16 6 -3 10 -2 10 4 0 5 -4 13 -10 16 -5
3 -10 2 -10 -4z"/>
<path d="M5200 2398 c0 -12 3 -18 7 -14 11 10 12 36 2 36 -5 0 -9 -10 -9 -22z"/>
<path d="M5392 2379 c10 -5 15 -17 12 -27 -5 -16 -5 -16 6 1 12 19 30 23 30 6
0 -5 -4 -7 -10 -4 -5 3 -10 -1 -10 -9 0 -8 5 -18 12 -22 7 -4 8 -3 4 4 -4 7
-1 12 9 12 9 0 19 -9 22 -20 3 -11 9 -20 13 -20 14 0 6 24 -19 58 -18 25 -26
30 -36 22 -9 -8 -15 -8 -20 0 -3 5 -12 10 -18 10 -7 0 -4 -5 5 -11z"/>
<path d="M5376 2361 c-4 -5 -3 -16 0 -25 3 -9 1 -16 -5 -16 -6 0 -11 -8 -11
-17 1 -16 3 -15 19 4 18 22 18 22 16 -35 -3 -50 -1 -58 14 -58 12 0 17 7 16
21 -1 11 2 27 7 37 5 10 3 18 -7 22 -8 3 -12 12 -9 20 3 9 -2 17 -15 21 -12 4
-18 12 -14 21 6 15 -2 19 -11 5z m39 -121 c3 -5 1 -10 -4 -10 -6 0 -11 5 -11
10 0 6 2 10 4 10 3 0 8 -4 11 -10z"/>
<path d="M5451 2314 c0 -11 3 -14 6 -6 3 7 2 16 -1 19 -3 4 -6 -2 -5 -13z"/>
<path d="M5500 2291 c0 -13 -6 -21 -17 -21 -17 -1 -17 -2 0 -15 18 -13 18 -14
-3 -35 -18 -18 -24 -20 -32 -9 -7 11 -9 11 -6 1 2 -8 7 -13 12 -12 5 1 13 -4
17 -12 7 -10 9 -10 9 0 0 7 5 10 10 7 16 -10 12 -25 -7 -26 -10 0 -13 -3 -6
-5 7 -3 22 0 35 7 l22 12 -22 8 c-25 10 -29 24 -8 32 15 6 32 -26 28 -49 -1
-7 8 -9 23 -6 21 4 25 1 24 -19 0 -22 -1 -23 -9 -4 -7 15 -9 16 -9 4 -1 -9 7
-23 16 -30 9 -8 14 -9 10 -3 -4 7 0 15 9 18 22 8 26 8 19 -4 -9 -14 8 -13 23
2 8 8 15 8 27 -2 8 -7 15 -9 15 -4 0 5 7 1 14 -9 8 -10 11 -28 8 -40 -3 -12
-1 -19 3 -15 11 10 47 -11 39 -23 -4 -7 -10 -7 -17 0 -19 19 -31 12 -14 -7 10
-10 15 -21 12 -24 -3 -3 1 -8 9 -11 9 -4 18 -2 21 3 4 6 1 10 -5 10 -6 0 -8 5
-5 10 3 6 13 10 20 10 12 0 12 -6 4 -26 -11 -32 -5 -42 16 -24 9 8 13 21 9 36
-5 20 -1 26 27 38 l32 14 -34 8 c-19 4 -37 7 -41 6 -5 -1 -8 2 -8 8 0 5 -21
20 -47 32 -27 12 -53 29 -60 38 -7 8 -13 12 -13 8 0 -4 -17 8 -37 27 -20 19
-41 31 -47 28 -5 -3 -6 -1 -2 5 3 6 2 13 -4 17 -5 3 -10 -3 -10 -14 0 -12 -5
-21 -11 -21 -6 0 -9 7 -5 15 3 9 0 15 -8 15 -17 0 -29 27 -16 35 6 4 10 -1 10
-9 0 -9 5 -16 10 -16 15 0 12 9 -10 37 -19 25 -20 25 -20 4z m120 -124 c0 -7
-4 -6 -10 3 -8 13 -10 12 -10 -4 0 -11 -3 -17 -6 -13 -4 3 -4 13 0 22 6 18 26
11 26 -8z m110 -78 c0 -11 -4 -18 -10 -14 -5 3 -7 12 -3 20 7 21 13 19 13 -6z
m35 -20 c-10 -15 -25 -10 -19 6 4 8 10 12 15 9 5 -3 7 -10 4 -15z m25 -3 c0
-8 -7 -16 -15 -20 -12 -4 -13 -2 -2 14 14 24 17 25 17 6z"/>
<path d="M5435 2260 c-3 -5 1 -10 9 -10 9 0 16 -5 16 -12 0 -6 2 -9 5 -6 7 7
-5 38 -15 38 -5 0 -12 -4 -15 -10z"/>
<path d="M5355 2239 c-4 -12 -3 -25 2 -29 4 -5 8 4 9 21 1 34 -2 37 -11 8z"/>
<path d="M5310 2230 c0 -6 7 -10 15 -10 8 0 15 2 15 4 0 2 -7 6 -15 10 -8 3
-15 1 -15 -4z"/>
<path d="M5407 2189 c7 -7 15 -10 18 -7 3 3 -2 9 -12 12 -14 6 -15 5 -6 -5z"/>
<path d="M5416 2156 c10 -8 21 -12 24 -10 5 6 -21 24 -34 24 -6 0 -1 -6 10
-14z"/>
<path d="M5495 2150 c-3 -5 1 -10 9 -10 11 0 14 -8 11 -30 -4 -35 8 -46 28
-26 8 8 18 12 21 8 4 -3 4 2 0 13 -5 11 -9 14 -12 7 -2 -7 -11 -12 -19 -12
-14 0 -14 3 2 20 16 18 16 20 2 20 -10 0 -17 5 -17 10 0 6 -4 10 -9 10 -6 0
-13 -4 -16 -10z"/>
<path d="M5413 2112 c0 -23 16 -42 36 -42 14 1 14 2 -1 11 -10 5 -18 16 -18
24 0 20 -17 27 -17 7z"/>
<path d="M5632 2113 c-7 -7 -22 -13 -32 -13 -11 0 -20 -4 -20 -10 0 -5 8 -10
18 -10 14 0 15 -2 2 -10 -9 -6 -17 -5 -21 2 -4 6 -12 7 -18 4 -15 -10 -14 -29
2 -23 6 2 22 0 34 -4 13 -5 22 -5 21 -1 -1 4 2 15 7 25 6 14 10 15 21 6 8 -6
14 -10 15 -8 0 2 2 11 4 19 4 24 -18 40 -33 23z"/>
<path d="M5679 2108 c-5 -12 -3 -66 2 -63 7 5 10 65 3 65 -2 0 -4 -1 -5 -2z"/>
<path d="M5630 2062 c0 -12 19 -26 26 -19 2 2 -2 10 -11 17 -9 8 -15 8 -15 2z"/>
<path d="M5532 2010 c12 -19 28 -27 28 -14 0 7 -27 34 -34 34 -4 0 -1 -9 6
-20z"/>
<path d="M5578 2023 c7 -3 16 -2 19 1 4 3 -2 6 -13 5 -11 0 -14 -3 -6 -6z"/>
<path d="M5622 2014 c-10 -11 -9 -15 5 -22 10 -5 25 -7 33 -4 13 4 13 3 2 -11
-8 -9 -20 -13 -28 -10 -8 3 -14 0 -14 -6 0 -6 5 -11 11 -11 5 0 7 -5 3 -11 -7
-13 -24 1 -27 22 -3 15 -9 19 -29 19 -9 0 -8 -4 2 -10 13 -9 13 -11 0 -20 -15
-9 -11 -12 20 -14 8 -1 14 -9 14 -19 -2 -24 10 -21 30 6 9 12 14 16 11 10 -9
-18 -2 -16 26 8 l24 21 -30 -8 c-26 -6 -28 -5 -17 8 7 9 24 14 40 12 16 -2 19
-1 7 2 -31 9 -44 24 -39 42 3 9 -1 6 -9 -7 -8 -14 -17 -19 -21 -13 -3 6 -1 12
6 14 7 3 8 7 3 10 -6 3 -16 0 -23 -8z"/>
<path d="M5685 2010 c-3 -6 1 -7 9 -4 18 7 21 14 7 14 -6 0 -13 -4 -16 -10z"/>
<path d="M5924 1978 c-3 -4 -3 -8 0 -8 2 0 12 -3 22 -7 11 -4 15 -3 11 4 -4 6
-1 13 5 16 7 3 3 4 -10 4 -13 -1 -26 -5 -28 -9z"/>
<path d="M5820 1955 c-14 -17 -35 -21 -25 -5 3 6 2 10 -3 10 -23 0 -20 -28 4
-34 13 -4 24 -11 24 -16 0 -6 11 -10 25 -10 30 0 32 13 6 46 -16 21 -20 22
-31 9z m35 -26 c11 -17 -1 -21 -15 -4 -8 9 -8 15 -2 15 6 0 14 -5 17 -11z"/>
<path d="M5874 1934 c3 -9 6 -20 6 -25 0 -6 4 -8 9 -4 15 8 9 45 -7 45 -9 0
-12 -6 -8 -16z"/>
</g>
</svg>
